<svg xmlns="http://www.w3.org/2000/svg" viewBox="0 0 64 64">
  <rect width="64" height="64" rx="14" fill="#e63535"/>
  <g transform="translate(8 8)" fill="#fff">
    <path d="M24 0C10.745 0 0 10.745 0 24s10.745 24 24 24 24-10.745 24-24S37.255 0 24 0zm0 3.6c2.83 0 5.54.625 7.99 1.73l-5.04 3.07-2.95-1.73-3.05 1.73-4.9-3.02A20.4 20.4 0 0 1 24 3.6zM7.41 8.23l4.92 3.05-1.58 8.72H4.88L.8 14.24a20.5 20.5 0 0 1 6.6-6zm33.18 0a20.5 20.5 0 0 1 6.98 6L43.12 20H36.8l-1.58-8.72 4.93-3.05zM2.4 21.6h6l4.25 11.71-6.24 4.54A20.4 20.4 0 0 1 2.4 21.6zm12.05 0h13.82l4.13 11.38-11.04 8.06-11.04-8.06 4.13-11.38zm17.67 0h6a20.4 20.4 0 0 1-4.01 16.25l-6.24-4.54 4.25-11.71zM.8 40.1l5.69-4.15 8.52 6.22v6.32A20.45 20.45 0 0 1 .8 40.1zm46.4 0A20.45 20.45 0 0 1 33 48.5v-6.32l8.52-6.22 5.68 4.15z"/>
  </g>
</svg>
