<svg xmlns="http://www.w3.org/2000/svg" viewBox="0 0 1200 630" preserveAspectRatio="xMidYMid slice">
  <defs>
    <linearGradient id="bg" x1="0" y1="0" x2="1" y2="1">
      <stop offset="0" stop-color="#0a0a0a"/>
      <stop offset="1" stop-color="#1a1a1a"/>
    </linearGradient>
    <radialGradient id="glow" cx="0.2" cy="0" r="0.9">
      <stop offset="0" stop-color="#e63535" stop-opacity="0.35"/>
      <stop offset="1" stop-color="#e63535" stop-opacity="0"/>
    </radialGradient>
  </defs>
  <rect width="1200" height="630" fill="url(#bg)"/>
  <rect width="1200" height="630" fill="url(#glow)"/>

  <!-- Ball icon -->
  <g transform="translate(90 135)" fill="#e63535">
    <rect x="-20" y="-20" width="160" height="160" rx="36" fill="#e63535"/>
    <g transform="translate(28 28) scale(4.4)" fill="#fff">
      <path d="M12 2C6.48 2 2 6.48 2 12s4.48 10 10 10 10-4.48 10-10S17.52 2 12 2zm0 1.5c1.18 0 2.31.26 3.33.72l-2.1 1.28-1.23-.72-1.27.72-2.04-1.26A8.5 8.5 0 0 1 12 3.5zM7.41 5.1l2.05 1.27-.66 3.63H6.2l-1.7-2.4A8.54 8.54 0 0 1 7.41 5.1zm9.18 0a8.54 8.54 0 0 1 2.91 2.5L17.8 10H15.2L14.54 6.37l2.05-1.27zM4.1 9h2.5l1.77 4.88-2.6 1.89A8.5 8.5 0 0 1 4.1 9zm5.02 0h5.76l1.72 4.74-4.6 3.36-4.6-3.36L9.12 9zm7.36 0h2.5a8.5 8.5 0 0 1-1.67 6.77l-2.6-1.89L16.48 9zm-10.9 7.7 2.37-1.73 3.55 2.6v2.63A8.52 8.52 0 0 1 5.58 16.7zm12.84 0A8.52 8.52 0 0 1 12.5 20.2v-2.63l3.55-2.6 2.37 1.73z"/>
    </g>
  </g>

  <!-- Title -->
  <text x="90" y="370" font-family="Oswald, Arial, sans-serif" font-size="108" font-weight="700" fill="#ffffff" letter-spacing="2">
    KRAGUJEVAC <tspan fill="#e63535">SPORT</tspan>
  </text>
  <text x="90" y="440" font-family="Inter, Arial, sans-serif" font-size="34" font-weight="500" fill="#cccccc">
    Najnovije sportske vesti iz Kragujevca i Šumadije
  </text>

  <!-- Accent bar -->
  <rect x="90" y="490" width="80" height="6" rx="3" fill="#e63535"/>
  <text x="90" y="540" font-family="Inter, Arial, sans-serif" font-size="22" font-weight="600" fill="#888888" letter-spacing="3">
    FUDBAL · KOŠARKA · RUKOMET · ATLETIKA
  </text>
</svg>
